<svg id="Laag_1" data-name="Laag 1" xmlns="http://www.w3.org/2000/svg" viewBox="0 0 288.54 298.72"><defs><style>.cls-1{fill:#f9ff00;}</style></defs><title>skipta logo</title><path class="cls-1" d="M14,241.06v3.23a7.83,7.83,0,0,0,6.52,3c3.43,0,5.65-1.61,6.52-3v-3.7c-0.74-1.34-2.62-2.22-5.24-2.82l-4-.81c-7.12-1.48-10.42-4.17-11.56-6V222.1c1.41-2,5.58-6.79,14.32-6.79s12.9,4.84,14.32,6.79v5.51h-7.8v-3c-0.87-1.41-3.09-3-6.52-3a7.74,7.74,0,0,0-6.52,3v3.23c0.81,1.28,2.69,2.15,5.38,2.76l3.9,0.81c7.12,1.55,10.42,4.17,11.56,6v9.41c-1.41,2.08-5.58,6.79-14.32,6.79s-12.9-4.77-14.32-6.79v-5.71H14Z" transform="translate(-6.23 -1.28)"/><path class="cls-1" d="M89,247.91v4.7H82.47L71.85,237.83,68,241.73v10.89H59.69v-47H68v25h1.21l13.58-14.32h5.65V221l-11,11.16Z" transform="translate(-6.23 -1.28)"/><path class="cls-1" d="M116.44,203c2.62,0,4.1,1.21,4.64,2.29v3.76c-0.54,1.08-2,2.29-4.64,2.29s-4.1-1.21-4.57-2.29V205.3C112.34,204.22,113.88,203,116.44,203Zm4.17,13.24v36.36h-8.33V216.26h8.33Z" transform="translate(-6.23 -1.28)"/><path class="cls-1" d="M176.81,223.38v22.11a13,13,0,0,1-12.5,7.93,13.51,13.51,0,0,1-9.61-3.49v13.85h-8.33V216.26h8.07v3a13.38,13.38,0,0,1,9.88-3.76A13.07,13.07,0,0,1,176.81,223.38Zm-8.4,1.95a7.41,7.41,0,0,0-6.59-3.29,9.26,9.26,0,0,0-7.12,2.82v19.09a9.28,9.28,0,0,0,7.12,2.89,7.41,7.41,0,0,0,6.59-3.29V225.33Z" transform="translate(-6.23 -1.28)"/><path class="cls-1" d="M211.31,222.44v21.78c0.6,0.87,1.95,2.69,6.32,2.69a23.19,23.19,0,0,0,2.69-.13v5.91a26.18,26.18,0,0,1-5.78.67c-7.46,0-10.48-3.56-11.56-6.25V222.44h-3.9v-6.18H203v-7.59h8.33v7.59h9v6.18h-9Z" transform="translate(-6.23 -1.28)"/><path class="cls-1" d="M273.37,224.32v28.3h-8.07v-2.82a14.58,14.58,0,0,1-10.22,3.76c-7.93,0-11.36-4-12.3-5.58V237.22c0.94-1.81,4.37-6.12,12.23-6.12a15.47,15.47,0,0,1,10,3.29V226a7.63,7.63,0,0,0-7.19-4.17,7.8,7.8,0,0,0-6.52,3v2.89h-7.8V222.1c1.14-1.55,5.18-6.79,14.32-6.79S271.69,220.49,273.37,224.32Zm-8.33,20v-4c-1.28-1.81-3.83-3.36-7.73-3.36a8.06,8.06,0,0,0-6.32,2.49v5.44a7.68,7.68,0,0,0,6.32,2.82C261.21,247.71,263.76,246.1,265,244.35Z" transform="translate(-6.23 -1.28)"/><path class="cls-1" d="M290.14,244.08c2.62,0,4.17,1.21,4.64,2.29V251c-0.47,1-2,2.29-4.64,2.29a4.87,4.87,0,0,1-4.5-2.29v-4.64C286.11,245.29,287.65,244.08,290.14,244.08Z" transform="translate(-6.23 -1.28)"/><path class="cls-1" d="M74.16,284.45l-2.39,11H70.3l0.34-1.55A6.31,6.31,0,0,1,66,295.78c-2.94,0-4.22-1.49-4.62-2.2l0.87-4.12a6.31,6.31,0,0,1,5.06-2.15,5.26,5.26,0,0,1,4.33,1.81l0.92-4.33c-0.21-1.29-1.42-2.47-3.54-2.47a4.92,4.92,0,0,0-3.83,1.73l-0.34,1.42H63.41l0.39-2A6.64,6.64,0,0,1,69.12,281C72.32,281,73.87,283,74.16,284.45ZM71,292.32l0.37-1.78a4,4,0,0,0-3.83-2A5.39,5.39,0,0,0,63.62,290l-0.63,3a3.72,3.72,0,0,0,3.33,1.44A6,6,0,0,0,71,292.32Z" transform="translate(-6.23 -1.28)"/><path class="cls-1" d="M92.16,281.38l-3,14.06H87.67l0.26-1.23a6.1,6.1,0,0,1-4.25,1.55,4.63,4.63,0,0,1-4.56-2.62l2.54-11.75h1.49l-2.44,11.33a3.4,3.4,0,0,0,3.33,1.76,5.63,5.63,0,0,0,4.17-1.7l2.41-11.38h1.52Z" transform="translate(-6.23 -1.28)"/><path class="cls-1" d="M109.63,277.08l-4,18.36H104.2l0.31-1.36a6.24,6.24,0,0,1-4.41,1.68c-3,0-4.33-1.84-4.62-2.75l2-9.18a6.42,6.42,0,0,1,5.38-2.75,5,5,0,0,1,4.06,1.68l1.21-5.66h1.52Zm-9.15,17.39a5.8,5.8,0,0,0,4.3-1.86l1.84-8.58a4.18,4.18,0,0,0-3.67-1.68,5.31,5.31,0,0,0-4.07,1.91l-1.78,8.39C97.38,293.37,98.33,294.47,100.48,294.47Z" transform="translate(-6.23 -1.28)"/><path class="cls-1" d="M113.49,295.44H112l3-14.06h1.49Zm4.2-18.3-0.26,1.1a1.38,1.38,0,0,1-1.08.45,0.86,0.86,0,0,1-.89-0.45l0.24-1.1a1.44,1.44,0,0,1,1.1-.45A0.89,0.89,0,0,1,117.69,277.13Z" transform="translate(-6.23 -1.28)"/><path class="cls-1" d="M133.8,284.45l-1.73,7.92a6.7,6.7,0,0,1-6,3.41c-3.23,0-4.75-1.91-5-3.41l1.73-7.92a6.75,6.75,0,0,1,6-3.41C132,281,133.51,283,133.8,284.45Zm-9.65.47-1.55,7.16c0.26,1.29,1.42,2.41,3.54,2.41a5.27,5.27,0,0,0,4.54-2.6l1.55-7.16c-0.26-1.29-1.42-2.41-3.54-2.41A5.28,5.28,0,0,0,124.15,284.92Z" transform="translate(-6.23 -1.28)"/><path class="cls-1" d="M164.83,277.08l-4,18.36H159.4l0.31-1.36a6.24,6.24,0,0,1-4.41,1.68c-3,0-4.33-1.84-4.62-2.75l2-9.18a6.42,6.42,0,0,1,5.38-2.75,5,5,0,0,1,4.06,1.68l1.21-5.66h1.52Zm-9.15,17.39a5.8,5.8,0,0,0,4.3-1.86l1.84-8.58a4.18,4.18,0,0,0-3.67-1.68,5.31,5.31,0,0,0-4.07,1.91l-1.78,8.39C152.58,293.37,153.53,294.47,155.68,294.47Z" transform="translate(-6.23 -1.28)"/><path class="cls-1" d="M181,284.34l-0.94,4.35h-9.47l-0.73,3.36c0.26,1.29,1.42,2.44,3.54,2.44a5.14,5.14,0,0,0,4.54-2.6l0.29-1.13h1.42l-0.37,1.7a6.66,6.66,0,0,1-6,3.3c-3.2,0-4.75-1.94-5-3.41l1.73-7.92a6.8,6.8,0,0,1,6-3.41C179.21,281,180.73,283,181,284.34Zm-9.62.53-0.55,2.67h8.05l0.6-2.78c-0.21-1.29-1.42-2.44-3.57-2.44A5.39,5.39,0,0,0,171.4,284.87Z" transform="translate(-6.23 -1.28)"/><path class="cls-1" d="M185.07,293.37l0.47-2.26H187l-0.37,1.76a3.63,3.63,0,0,0,3.36,1.63,4.68,4.68,0,0,0,3.8-1.73l0.47-2.2c-0.29-.71-1.1-1.1-2.49-1.52l-1.7-.5c-2.15-.63-3.15-1.55-3.44-2.33l0.58-2.78a6.6,6.6,0,0,1,5.3-2.39c3,0,4.33,1.7,4.69,2.47l-0.47,2.18H195.3l0.34-1.68a3.44,3.44,0,0,0-3.3-1.68,4.79,4.79,0,0,0-3.78,1.65l-0.37,1.76c0.31,0.71,1.08,1.18,2.46,1.6l1.68,0.5c2.12,0.63,3.15,1.44,3.46,2.26l-0.71,3.25a6.2,6.2,0,0,1-5.22,2.44A5.24,5.24,0,0,1,185.07,293.37Z" transform="translate(-6.23 -1.28)"/><path class="cls-1" d="M202.63,295.44h-1.49l3-14.06h1.49Zm4.2-18.3-0.26,1.1a1.38,1.38,0,0,1-1.08.45,0.86,0.86,0,0,1-.89-0.45l0.24-1.1a1.44,1.44,0,0,1,1.1-.45A0.89,0.89,0,0,1,206.82,277.13Z" transform="translate(-6.23 -1.28)"/><path class="cls-1" d="M222.35,281.38L219,296.83a6.55,6.55,0,0,1-6,3.17c-3.23,0-4.48-1.81-4.8-2.73l0.45-2h1.47l-0.37,1.7c0.42,1,1.55,1.76,3.36,1.76a5,5,0,0,0,4.43-2.31l0.81-3.75a6.47,6.47,0,0,1-4.35,1.63c-3.07,0-4.33-1.84-4.61-2.75l1.65-7.71a6.42,6.42,0,0,1,5.38-2.75,5,5,0,0,1,4.09,1.7l0.31-1.39h1.47Zm-3.59,9.7,1.52-7.05a4.23,4.23,0,0,0-3.7-1.68,5.31,5.31,0,0,0-4.07,1.91l-1.47,6.9c0.29,0.71,1.18,1.81,3.33,1.81A6,6,0,0,0,218.76,291.08Z" transform="translate(-6.23 -1.28)"/><path class="cls-1" d="M239.62,283.82l-2.49,11.62h-1.52L238,284.16a3.41,3.41,0,0,0-3.33-1.81,6,6,0,0,0-4.38,1.86l-2.41,11.22h-1.49l3-14.06h1.44l-0.31,1.34a6.59,6.59,0,0,1,4.48-1.65C238.1,281.07,239.33,282.9,239.62,283.82Z" transform="translate(-6.23 -1.28)"/><path class="cls-1" d="M137.38,1.33C103.3,6.13,72.92,30.8,61.78,63.46c-11.74,34.42.37,73.85,25.91,98.85,14.14,13.83,32.36,23.08,52.54,20.89,19.33-2.1,39-10.67,54.58-22.14a91.64,91.64,0,0,0,33-44.19c6.5-18.63,9.39-40,2.73-59C216,16.43,168.2-3.14,127.73,11.74c-5.39,2-3.06,10.68,2.39,8.68,32.43-11.93,70.74-.26,87.63,30.74,8.81,16.16,8.85,34,4.73,51.6-4.06,17.33-12,32.82-25.3,44.85-12.47,11.31-28.26,19.32-44.38,23.95-9.53,2.74-19.64,4.15-29.41,1.83a58.77,58.77,0,0,1-23.33-12C75.21,141,61.18,106.88,67.95,75c7.28-34.29,37.58-60.18,71.82-65,5.71-.81,3.28-9.48-2.39-8.68h0Z" transform="translate(-6.23 -1.28)"/></svg>